<svg id="Слой_1" data-name="Слой 1" xmlns="http://www.w3.org/2000/svg" viewBox="0 0 101 43"><defs><style>.cls-1{fill:#3571ff;}.cls-2,.cls-3{isolation:isolate;}.cls-3{font-size:36px;fill:#fff;font-family:Helvetica-Bold, Helvetica;font-weight:700;}</style></defs><title>logo</title><g id="Group_7" data-name="Group 7"><path id="Subtraction_1" data-name="Subtraction 1" class="cls-1" d="M93,43H11V11h90V35A8,8,0,0,1,93,43ZM85.85,17.76c-3,0-5.23.44-6.51,1.33s-1.92,2.57-1.92,5v5c0,2.52.65,4.21,2,5s3.44,1.23,6.36,1.23c3.1,0,5.16-.45,6.12-1.32s1.45-2.72,1.45-5.47V25.39H85.39v3.19h3.24A3.45,3.45,0,0,1,88,31a3.49,3.49,0,0,1-2.35.58,4.14,4.14,0,0,1-2.8-.67,3.93,3.93,0,0,1-.69-2.72V25.08c0-1.58.24-2.58.71-3a6.7,6.7,0,0,1,4.94-.23,1.42,1.42,0,0,1,.82,1.46H93.3c0-2.17-.48-3.65-1.42-4.42S88.91,17.76,85.85,17.76Zm-23.14,4.5,4.93,12.93h7.82V17.93h-4.6V31l-5-13.07H58.1V35.18h4.6V22.25ZM43,17.93v4h4.5V35.18h4.6V21.93h4.49v-4Z"/><path id="Rectangle_8" data-name="Rectangle 8" class="cls-1" d="M8,0H35a8,8,0,0,1,8,8V43H8a8,8,0,0,1-8-8V8A8,8,0,0,1,8,0Z"/><g id="it" class="cls-2"><text class="cls-3" transform="translate(8 34)">it</text></g></g></svg>